<svg xmlns="http://www.w3.org/2000/svg" width="48" height="48" viewBox="0 0 48 48">
    <defs>
        <style>
            .cls-1{fill:#fff}
        </style>
    </defs>
    <g id="google" transform="translate(-1 -1)">
        <path id="Path_64" d="M45 1H5a4.012 4.012 0 0 0-4 4v40a4.012 4.012 0 0 0 4 4h40a4.012 4.012 0 0 0 4-4V5a4.012 4.012 0 0 0-4-4z" class="cls-1"/>
        <g id="Group_66">
            <path id="Path_65" d="M20.3 10.5a15.848 15.848 0 0 0-8.7 7.6 12.806 12.806 0 0 0-1.3 3.9 15.384 15.384 0 0 0 1.3 9.9 14.752 14.752 0 0 0 4.2 5.1 14.088 14.088 0 0 0 5.6 2.8 15.861 15.861 0 0 0 7.8.1 13.666 13.666 0 0 0 10.2-9.7 17.065 17.065 0 0 0 .4-8.1H25.4v6h8.3a6.981 6.981 0 0 1-3.1 4.7 8.3 8.3 0 0 1-3.4 1.3 11.483 11.483 0 0 1-3.7 0 8.654 8.654 0 0 1-3.4-1.5 9.183 9.183 0 0 1-3.5-4.7 8.833 8.833 0 0 1 0-6 10.285 10.285 0 0 1 2.2-3.6 8.06 8.06 0 0 1 4.6-2.5 8.612 8.612 0 0 1 4.5.2 9.83 9.83 0 0 1 3.3 1.9l2.8-2.8 1.5-1.5a15.68 15.68 0 0 0-4.9-3.1 16.487 16.487 0 0 0-10.3 0z" class="cls-1"/>
            <g id="Group_62">
                <path id="Path_66" fill="#ea4335" d="M20.3 10.5a15.809 15.809 0 0 1 10.3.1 14.065 14.065 0 0 1 4.9 3.1L34 15.2 31.2 18a7.343 7.343 0 0 0-3.3-1.9 9.741 9.741 0 0 0-4.5-.2 10.388 10.388 0 0 0-4.6 2.5 9 9 0 0 0-2.2 3.6c-1.7-1.3-3.3-2.6-5-3.9a15.848 15.848 0 0 1 8.7-7.6z"/>
            </g>
            <g id="Group_63">
                <path id="Path_67" fill="#fbbc05" d="M10.3 22a19.841 19.841 0 0 1 1.3-3.9c1.7 1.3 3.3 2.6 5 3.9a8.833 8.833 0 0 0 0 6c-1.7 1.3-3.3 2.6-5 3.9a15.469 15.469 0 0 1-1.3-9.9z"/>
            </g>
            <g id="Group_64">
                <path id="Path_68" fill="#4285f4" d="M25.3 22.1h14.4a17.065 17.065 0 0 1-.4 8.1 14.253 14.253 0 0 1-3.9 6.4c-1.6-1.3-3.2-2.5-4.9-3.8a7.6 7.6 0 0 0 3.1-4.7h-8.3v-6z"/>
            </g>
            <g id="Group_65">
                <path id="Path_69" fill="#34a853" d="M11.6 31.9c1.7-1.3 3.3-2.6 5-3.9a9.183 9.183 0 0 0 3.5 4.7 10.389 10.389 0 0 0 3.4 1.5 11.479 11.479 0 0 0 3.7 0 10.007 10.007 0 0 0 3.4-1.3c1.6 1.3 3.2 2.5 4.9 3.8a14.7 14.7 0 0 1-6.3 3.3 15.832 15.832 0 0 1-7.8-.1 15.535 15.535 0 0 1-5.6-2.8 18.858 18.858 0 0 1-4.2-5.2z"/>
            </g>
        </g>
    </g>
</svg>
