<svg xmlns="http://www.w3.org/2000/svg" width="31.75" height="31.75"><path d="M27.472 0H4.278a4.278 4.278 0 00-4.28 4.278v23.194a4.278 4.278 0 004.28 4.278h11.439l.02-11.35h-2.948a.7.7 0 01-.7-.693l-.014-3.657a.7.7 0 01.7-.7h2.942v-3.528c0-4.1 2.5-6.334 6.163-6.334h3a.7.7 0 01.7.7v3.08a.7.7 0 01-.7.7h-1.84c-1.99 0-2.375.945-2.375 2.333v3.059h4.372a.7.7 0 01.691.777l-.43 3.654a.7.7 0 01-.691.614h-3.922l-.019 11.346h6.806a4.278 4.278 0 004.278-4.278V4.278A4.279 4.279 0 0027.472 0z" data-name="036-facebook" fill="#5674d5"/></svg>