<svg xmlns="http://www.w3.org/2000/svg" width="31.751" height="31.75"><path d="M28.878 0H2.872A2.872 2.872 0 000 2.872v26.006a2.872 2.872 0 002.872 2.872h26.006a2.872 2.872 0 002.872-2.872V2.872A2.872 2.872 0 0028.878 0zM9.825 27.416a.836.836 0 01-.836.836H5.431a.836.836 0 01-.836-.836V12.5a.836.836 0 01.836-.836h3.558a.836.836 0 01.836.836zM7.21 10.259a3.38 3.38 0 113.38-3.38 3.38 3.38 0 01-3.38 3.38zm21.208 17.224a.769.769 0 01-.768.768h-3.818a.769.769 0 01-.768-.768v-7c0-1.044.306-4.573-2.727-4.573-2.353 0-2.83 2.416-2.926 3.5v8.069a.768.768 0 01-.768.768h-3.694a.769.769 0 01-.768-.768V12.434a.769.769 0 01.768-.768h3.693a.769.769 0 01.768.768v1.3c.872-1.309 2.169-2.32 4.93-2.32 6.113 0 6.078 5.711 6.078 8.85v7.218z" data-name="027-linkedin" fill="#0077b7"/></svg>