<svg xmlns="http://www.w3.org/2000/svg" width="34.091" height="28.357"><path d="M33.549 3.299a13.5 13.5 0 01-2.351.793 7.329 7.329 0 001.935-3.083.384.384 0 00-.562-.448 13.564 13.564 0 01-3.594 1.485.916.916 0 01-.225.028.953.953 0 01-.629-.24A7.35 7.35 0 0023.26-.001a7.858 7.858 0 00-2.328.359 7.12 7.12 0 00-4.8 5.13 7.84 7.84 0 00-.174 2.706.263.263 0 01-.066.206.272.272 0 01-.2.092h-.026A19.272 19.272 0 012.418 1.416a.384.384 0 00-.63.049 7.358 7.358 0 001.2 8.934 6.586 6.586 0 01-1.676-.649.384.384 0 00-.571.331 7.359 7.359 0 004.293 6.78h-.157a6.613 6.613 0 01-1.238-.118.384.384 0 00-.438.495 7.366 7.366 0 005.818 5.01 13.562 13.562 0 01-7.6 2.307H.568a.563.563 0 00-.55.424.582.582 0 00.279.643 20.172 20.172 0 0010.136 2.733A20.449 20.449 0 0019.1 26.52a19.129 19.129 0 006.338-4.749 20.822 20.822 0 003.881-6.5 20.533 20.533 0 001.319-7.114v-.112a1.251 1.251 0 01.468-.973 14.527 14.527 0 002.922-3.208.384.384 0 00-.475-.565z" data-name="008-twitter" fill="#76a9ea"/></svg>