<svg xmlns="http://www.w3.org/2000/svg" width="396.274" height="136.962"><defs><style>.prefix__cls-1{fill:#ff77ac}</style></defs><g id="prefix__sunray" transform="translate(-117.283 -3158)"><g id="prefix__Group_58" data-name="Group 58" transform="translate(117.283 3158)"><path id="prefix__Path_35" d="M255.257 39.265a3.527 3.527 0 01-3.557 3.175 3.54 3.54 0 01-3.581-3.174V3.189A3.546 3.546 0 01251.7 0a3.534 3.534 0 013.553 3.189z" class="prefix__cls-1" data-name="Path 35" transform="translate(-53.549)"/><path id="prefix__Path_37" d="M401.574 103.753a3.183 3.183 0 01-4.494 0 3.176 3.176 0 01-.022-4.508l25.517-25.512a3.188 3.188 0 014.508 0 3.207 3.207 0 010 4.508z" class="prefix__cls-1" data-name="Path 37" transform="translate(-67.511 -6.867)"/><path id="prefix__Path_42" d="M73.733 78.242a3.194 3.194 0 010-4.508 3.179 3.179 0 014.5 0l25.511 25.5a3.218 3.218 0 01.007 4.523 3.19 3.19 0 01-4.516-.022z" class="prefix__cls-1" data-name="Path 42" transform="translate(-37.011 -6.867)"/><path id="prefix__Path_43" d="M148.274 66.125a3.194 3.194 0 01-1.17 4.344 3.184 3.184 0 01-4.359-1.156l-18.028-31.238a3.181 3.181 0 011.17-4.359 3.176 3.176 0 014.344 1.177z" class="prefix__cls-1" data-name="Path 43" transform="translate(-41.868 -3.14)"/><path id="prefix__Path_45" d="M308.839 47.319a3.2 3.2 0 01-3.916 2.254 3.18 3.18 0 01-2.247-3.9l9.346-34.849a3.167 3.167 0 013.888-2.247 3.188 3.188 0 012.261 3.9z" class="prefix__cls-1" data-name="Path 45" transform="translate(-58.685 -.799)"/><path id="prefix__Path_47" d="M434.087 148.251a3.184 3.184 0 01-4.359-1.156 3.174 3.174 0 011.17-4.352l31.24-18.043a3.175 3.175 0 014.352 1.177 3.181 3.181 0 01-1.177 4.344z" class="prefix__cls-1" data-name="Path 47" transform="translate(-70.64 -11.722)"/><path id="prefix__Path_51" d="M69.313 142.721a3.167 3.167 0 011.148 4.352 3.168 3.168 0 01-4.344 1.17l-31.225-18.035a3.167 3.167 0 01-1.177-4.352 3.19 3.19 0 014.366-1.163z" class="prefix__cls-1" data-name="Path 51" transform="translate(-33.283 -11.721)"/><path id="prefix__Path_53" d="M199.812 45.664a3.2 3.2 0 01-2.24 3.9 3.194 3.194 0 01-3.91-2.24l-9.346-34.849a3.186 3.186 0 012.24-3.9 3.2 3.2 0 013.91 2.24z" class="prefix__cls-1" data-name="Path 53" transform="translate(-47.52 -.799)"/><path id="prefix__Path_55" d="M358.844 69.308a3.172 3.172 0 01-4.345 1.17 3.18 3.18 0 01-1.17-4.352l18.027-31.239a3.19 3.19 0 014.373-1.163 3.182 3.182 0 011.141 4.352z" class="prefix__cls-1" data-name="Path 55" transform="translate(-63.433 -3.14)"/></g></g></svg>